<svg width="232" height="37" viewBox="0 0 232 37" fill="none" xmlns="http://www.w3.org/2000/svg">
<path d="M22.1478 22.8119C22.2469 22.9838 22.2738 23.188 22.2226 23.3797C22.1715 23.5714 22.0465 23.735 21.875 23.8348L12.875 29.0848C12.7603 29.1516 12.6299 29.1869 12.4972 29.1869C12.3644 29.1869 12.2341 29.1516 12.1194 29.0848L3.11938 23.8348C2.95034 23.7332 2.82811 23.5691 2.77916 23.3781C2.7302 23.187 2.75846 22.9844 2.85781 22.814C2.95717 22.6437 3.11962 22.5193 3.31 22.4679C3.50037 22.4164 3.70336 22.442 3.875 22.5391L12.5 27.5688L21.125 22.5391C21.2969 22.4401 21.5011 22.4132 21.6927 22.4643C21.8844 22.5154 22.0481 22.6404 22.1478 22.8119ZM21.125 18.0391L12.5 23.0688L3.875 18.0391C3.70423 17.9541 3.50748 17.9373 3.32479 17.9923C3.1421 18.0472 2.9872 18.1697 2.89163 18.3348C2.79606 18.4999 2.76699 18.6952 2.81035 18.881C2.8537 19.0667 2.96622 19.229 3.125 19.3348L12.125 24.5848C12.2397 24.6516 12.3701 24.6869 12.5028 24.6869C12.6356 24.6869 12.7659 24.6516 12.8806 24.5848L21.8806 19.3348C21.9671 19.2858 22.0429 19.2203 22.1038 19.1418C22.1647 19.0633 22.2094 18.9735 22.2353 18.8777C22.2612 18.7818 22.2679 18.6817 22.2548 18.5833C22.2417 18.4848 22.2092 18.3899 22.1592 18.3041C22.1091 18.2183 22.0426 18.1433 21.9633 18.0835C21.884 18.0236 21.7937 17.9801 21.6975 17.9555C21.6013 17.9308 21.5011 17.9255 21.4028 17.9399C21.3046 17.9542 21.2101 17.988 21.125 18.0391ZM2.75 14.1869C2.7503 14.0556 2.7851 13.9266 2.85091 13.8129C2.91672 13.6992 3.01124 13.6048 3.125 13.5391L12.125 8.28912C12.2397 8.22225 12.3701 8.18701 12.5028 8.18701C12.6356 8.18701 12.7659 8.22225 12.8806 8.28912L21.8806 13.5391C21.9938 13.6052 22.0878 13.6997 22.1531 13.8134C22.2183 13.9271 22.2527 14.0559 22.2527 14.1869C22.2527 14.318 22.2183 14.4468 22.1531 14.5605C22.0878 14.6741 21.9938 14.7687 21.8806 14.8348L12.8806 20.0848C12.7659 20.1516 12.6356 20.1869 12.5028 20.1869C12.3701 20.1869 12.2397 20.1516 12.125 20.0848L3.125 14.8348C3.01124 14.7691 2.91672 14.6747 2.85091 14.561C2.7851 14.4473 2.7503 14.3183 2.75 14.1869ZM4.98875 14.1869L12.5 18.5688L20.0112 14.1869L12.5 9.80506L4.98875 14.1869Z" fill="#F1F5F9"/>
<path d="M34.2216 27.687V10.2325H37.3835V18.2524H37.5966L44.4062 10.2325H48.267L41.517 18.0649L48.3267 27.687H44.5256L39.3182 20.2041L37.3835 22.4881V27.687H34.2216ZM53.4126 20.0166V27.687H50.3274V14.5961H53.2763V16.8205H53.4297C53.7308 16.0876 54.2109 15.5052 54.87 15.0734C55.5348 14.6416 56.3558 14.4256 57.3331 14.4256C58.2365 14.4256 59.0234 14.6188 59.6939 15.0052C60.37 15.3916 60.8928 15.9512 61.2621 16.6842C61.6371 17.4171 61.8217 18.3063 61.8161 19.3518V27.687H58.7308V19.8291C58.7308 18.9541 58.5036 18.2694 58.049 17.7751C57.6001 17.2808 56.978 17.0336 56.1825 17.0336C55.6428 17.0336 55.1626 17.1529 54.7422 17.3916C54.3274 17.6245 54.0007 17.9626 53.7621 18.4058C53.5291 18.8489 53.4126 19.3859 53.4126 20.0166ZM70.6626 27.9427C69.3842 27.9427 68.2763 27.6614 67.3388 27.0989C66.4013 26.5364 65.674 25.7495 65.157 24.7381C64.6456 23.7268 64.3899 22.545 64.3899 21.1927C64.3899 19.8404 64.6456 18.6558 65.157 17.6387C65.674 16.6217 66.4013 15.8319 67.3388 15.2694C68.2763 14.7069 69.3842 14.4256 70.6626 14.4256C71.9411 14.4256 73.049 14.7069 73.9865 15.2694C74.924 15.8319 75.6484 16.6217 76.1598 17.6387C76.6768 18.6558 76.9354 19.8404 76.9354 21.1927C76.9354 22.545 76.6768 23.7268 76.1598 24.7381C75.6484 25.7495 74.924 26.5364 73.9865 27.0989C73.049 27.6614 71.9411 27.9427 70.6626 27.9427ZM70.6797 25.4711C71.3729 25.4711 71.9524 25.2808 72.4183 24.9001C72.8842 24.5137 73.2308 23.9967 73.4581 23.3489C73.6911 22.7012 73.8075 21.9796 73.8075 21.1842C73.8075 20.383 73.6911 19.6586 73.4581 19.0109C73.2308 18.3575 72.8842 17.8376 72.4183 17.4512C71.9524 17.0649 71.3729 16.8717 70.6797 16.8717C69.9695 16.8717 69.3786 17.0649 68.907 17.4512C68.4411 17.8376 68.0916 18.3575 67.8587 19.0109C67.6314 19.6586 67.5178 20.383 67.5178 21.1842C67.5178 21.9796 67.6314 22.7012 67.8587 23.3489C68.0916 23.9967 68.4411 24.5137 68.907 24.9001C69.3786 25.2808 69.9695 25.4711 70.6797 25.4711ZM81.8807 27.687L78.1818 14.5961H81.3267L83.6278 23.8006H83.7472L86.0994 14.5961H89.2102L91.5625 23.7495H91.6903L93.9574 14.5961H97.1108L93.4034 27.687H90.1903L87.7358 18.8404H87.5568L85.1023 27.687H81.8807ZM98.2081 10.2325H101.779L106.049 17.9541H106.219L110.489 10.2325H114.06L107.711 21.1756V27.687H104.558V21.1756L98.2081 10.2325ZM119.436 27.9427C118.158 27.9427 117.05 27.6614 116.112 27.0989C115.175 26.5364 114.447 25.7495 113.93 24.7381C113.419 23.7268 113.163 22.545 113.163 21.1927C113.163 19.8404 113.419 18.6558 113.93 17.6387C114.447 16.6217 115.175 15.8319 116.112 15.2694C117.05 14.7069 118.158 14.4256 119.436 14.4256C120.714 14.4256 121.822 14.7069 122.76 15.2694C123.697 15.8319 124.422 16.6217 124.933 17.6387C125.45 18.6558 125.709 19.8404 125.709 21.1927C125.709 22.545 125.45 23.7268 124.933 24.7381C124.422 25.7495 123.697 26.5364 122.76 27.0989C121.822 27.6614 120.714 27.9427 119.436 27.9427ZM119.453 25.4711C120.146 25.4711 120.726 25.2808 121.192 24.9001C121.658 24.5137 122.004 23.9967 122.232 23.3489C122.464 22.7012 122.581 21.9796 122.581 21.1842C122.581 20.383 122.464 19.6586 122.232 19.0109C122.004 18.3575 121.658 17.8376 121.192 17.4512C120.726 17.0649 120.146 16.8717 119.453 16.8717C118.743 16.8717 118.152 17.0649 117.68 17.4512C117.214 17.8376 116.865 18.3575 116.632 19.0109C116.405 19.6586 116.291 20.383 116.291 21.1842C116.291 21.9796 116.405 22.7012 116.632 23.3489C116.865 23.9967 117.214 24.5137 117.68 24.9001C118.152 25.2808 118.743 25.4711 119.453 25.4711ZM136.671 22.1813V14.5961H139.756V27.687H136.765V25.3603H136.629C136.333 26.0933 135.847 26.6927 135.171 27.1586C134.501 27.6245 133.674 27.8575 132.691 27.8575C131.833 27.8575 131.075 27.6671 130.415 27.2864C129.762 26.9001 129.251 26.3404 128.881 25.6075C128.512 24.8688 128.327 23.9768 128.327 22.9313V14.5961H131.413V22.4541C131.413 23.2836 131.64 23.9427 132.094 24.4313C132.549 24.92 133.146 25.1643 133.884 25.1643C134.339 25.1643 134.779 25.0535 135.205 24.8319C135.631 24.6103 135.981 24.2808 136.254 23.8433C136.532 23.4001 136.671 22.8461 136.671 22.1813ZM142.929 27.687V14.5961H145.92V16.7779H146.057C146.295 16.0222 146.705 15.4399 147.284 15.0308C147.869 14.616 148.537 14.4086 149.287 14.4086C149.457 14.4086 149.648 14.4171 149.858 14.4342C150.074 14.4455 150.253 14.4654 150.395 14.4938V17.3319C150.264 17.2864 150.057 17.2467 149.773 17.2126C149.494 17.1728 149.224 17.1529 148.963 17.1529C148.401 17.1529 147.895 17.2751 147.446 17.5194C147.003 17.758 146.653 18.0904 146.398 18.5166C146.142 18.9427 146.014 19.4342 146.014 19.991V27.687H142.929ZM155.743 10.2325V27.687H152.581V10.2325H155.743ZM159.031 27.687V14.5961H161.979V16.8205H162.133C162.406 16.0705 162.857 15.4853 163.488 15.0649C164.119 14.6387 164.871 14.4256 165.746 14.4256C166.633 14.4256 167.38 14.6416 167.988 15.0734C168.602 15.4995 169.033 16.0819 169.283 16.8205H169.42C169.71 16.0933 170.198 15.5137 170.886 15.0819C171.579 14.6444 172.4 14.4256 173.349 14.4256C174.553 14.4256 175.536 14.8063 176.298 15.5677C177.059 16.3291 177.44 17.4399 177.44 18.9001V27.687H174.346V19.3774C174.346 18.5649 174.13 17.9711 173.698 17.5961C173.266 17.2154 172.738 17.0251 172.113 17.0251C171.369 17.0251 170.786 17.258 170.366 17.7239C169.951 18.1842 169.744 18.7836 169.744 19.5222V27.687H166.718V19.2495C166.718 18.5734 166.513 18.0336 166.104 17.6302C165.701 17.2268 165.173 17.0251 164.519 17.0251C164.076 17.0251 163.673 17.1387 163.309 17.366C162.945 17.5876 162.656 17.9029 162.44 18.312C162.224 18.7154 162.116 19.187 162.116 19.7268V27.687H159.031ZM180.57 32.5961V14.5961H183.604V16.7609H183.783C183.942 16.4427 184.166 16.1046 184.456 15.7467C184.746 15.383 185.138 15.0734 185.632 14.8177C186.126 14.5563 186.757 14.4256 187.524 14.4256C188.536 14.4256 189.447 14.6842 190.26 15.2012C191.078 15.7126 191.726 16.4711 192.203 17.4768C192.686 18.4768 192.928 19.7041 192.928 21.1586C192.928 22.5961 192.692 23.8177 192.22 24.8234C191.749 25.8291 191.107 26.5961 190.294 27.1245C189.482 27.6529 188.561 27.9171 187.533 27.9171C186.783 27.9171 186.161 27.7921 185.666 27.5421C185.172 27.2921 184.774 26.991 184.473 26.6387C184.178 26.2808 183.947 25.9427 183.783 25.6245H183.655V32.5961H180.57ZM183.595 21.1416C183.595 21.9881 183.714 22.7296 183.953 23.366C184.197 24.0024 184.547 24.4995 185.001 24.8575C185.462 25.2097 186.018 25.3859 186.672 25.3859C187.354 25.3859 187.925 25.2041 188.385 24.8404C188.845 24.4711 189.192 23.9683 189.425 23.3319C189.663 22.6899 189.783 21.9597 189.783 21.1416C189.783 20.3291 189.666 19.6075 189.433 18.9768C189.2 18.3461 188.854 17.8518 188.393 17.4938C187.933 17.1359 187.359 16.9569 186.672 16.9569C186.013 16.9569 185.453 17.1302 184.993 17.4768C184.533 17.8234 184.183 18.3092 183.945 18.9342C183.712 19.5592 183.595 20.295 183.595 21.1416ZM199.337 27.9512C198.507 27.9512 197.76 27.8035 197.095 27.508C196.436 27.2069 195.913 26.7637 195.527 26.1785C195.146 25.5933 194.956 24.8717 194.956 24.0137C194.956 23.2751 195.092 22.6643 195.365 22.1813C195.638 21.6984 196.01 21.312 196.482 21.0222C196.953 20.7325 197.484 20.5137 198.075 20.366C198.672 20.2126 199.288 20.1018 199.925 20.0336C200.692 19.9541 201.314 19.883 201.791 19.8205C202.268 19.7524 202.615 19.6501 202.831 19.5137C203.053 19.3717 203.163 19.1529 203.163 18.8575V18.8063C203.163 18.1643 202.973 17.6671 202.592 17.3149C202.212 16.9626 201.663 16.7864 200.947 16.7864C200.192 16.7864 199.592 16.9512 199.149 17.2808C198.712 17.6103 198.416 17.9995 198.263 18.4484L195.382 18.0393C195.609 17.2438 195.984 16.5791 196.507 16.045C197.03 15.5052 197.669 15.1018 198.425 14.8347C199.18 14.562 200.016 14.4256 200.93 14.4256C201.561 14.4256 202.189 14.4995 202.814 14.6472C203.439 14.795 204.01 15.0393 204.527 15.3802C205.044 15.7154 205.459 16.1728 205.771 16.7524C206.089 17.3319 206.249 18.0563 206.249 18.9256V27.687H203.283V25.8887H203.18C202.993 26.2524 202.729 26.5933 202.388 26.9114C202.053 27.2239 201.629 27.4768 201.118 27.67C200.612 27.8575 200.018 27.9512 199.337 27.9512ZM200.138 25.6842C200.757 25.6842 201.294 25.562 201.749 25.3177C202.203 25.0677 202.553 24.7381 202.797 24.3291C203.047 23.92 203.172 23.4739 203.172 22.991V21.4484C203.075 21.5279 202.911 21.6018 202.678 21.67C202.45 21.7381 202.195 21.7978 201.911 21.8489C201.626 21.9001 201.345 21.9455 201.067 21.9853C200.788 22.0251 200.547 22.0592 200.342 22.0876C199.882 22.1501 199.47 22.2524 199.107 22.3944C198.743 22.5364 198.456 22.7353 198.246 22.991C198.036 23.241 197.93 23.5649 197.93 23.9626C197.93 24.5308 198.138 24.9597 198.553 25.2495C198.967 25.5393 199.496 25.6842 200.138 25.6842ZM215.061 27.9427C213.754 27.9427 212.632 27.6558 211.695 27.0819C210.763 26.508 210.044 25.7154 209.538 24.7041C209.038 23.687 208.788 22.5166 208.788 21.1927C208.788 19.8631 209.044 18.6899 209.555 17.6728C210.067 16.6501 210.788 15.8546 211.72 15.2864C212.658 14.7126 213.766 14.4256 215.044 14.4256C216.107 14.4256 217.047 14.6217 217.865 15.0137C218.689 15.4001 219.345 15.9484 219.834 16.6586C220.322 17.3631 220.601 18.187 220.669 19.1302H217.72C217.601 18.4995 217.317 17.9739 216.868 17.5535C216.425 17.1274 215.831 16.9143 215.087 16.9143C214.456 16.9143 213.902 17.0847 213.425 17.4256C212.947 17.7609 212.575 18.2438 212.308 18.8745C212.047 19.5052 211.916 20.2609 211.916 21.1416C211.916 22.0336 212.047 22.8006 212.308 23.4427C212.57 24.0791 212.936 24.5705 213.408 24.9171C213.885 25.258 214.445 25.4285 215.087 25.4285C215.541 25.4285 215.947 25.3433 216.305 25.1728C216.669 24.9967 216.973 24.7438 217.217 24.4143C217.462 24.0847 217.629 23.6842 217.72 23.2126H220.669C220.595 24.1387 220.322 24.9597 219.851 25.6756C219.379 26.3859 218.737 26.9427 217.925 27.3461C217.112 27.7438 216.158 27.9427 215.061 27.9427ZM229.739 14.5961V16.9825H222.214V14.5961H229.739ZM224.072 11.4597H227.157V23.7495C227.157 24.1643 227.219 24.4825 227.344 24.7041C227.475 24.92 227.646 25.0677 227.856 25.1472C228.066 25.2268 228.299 25.2666 228.555 25.2666C228.748 25.2666 228.924 25.2524 229.083 25.2239C229.248 25.1955 229.373 25.17 229.458 25.1472L229.978 27.5592C229.813 27.616 229.577 27.6785 229.271 27.7467C228.969 27.8149 228.6 27.8546 228.163 27.866C227.39 27.8887 226.694 27.7722 226.075 27.5166C225.455 27.2552 224.964 26.8518 224.6 26.3063C224.242 25.7609 224.066 25.0791 224.072 24.2609V11.4597Z" fill="#F1F5F9"/>
</svg>
